<mxfile host="65bd71144e">
    <diagram id="MeWn_e7zawVrQ20S3lAc" name="第 1 页">
        <mxGraphModel dx="1102" dy="787" grid="1" gridSize="10" guides="1" tooltips="1" connect="1" arrows="1" fold="1" page="1" pageScale="1" pageWidth="827" pageHeight="1169" math="0" shadow="0">
            <root>
                <mxCell id="0"/>
                <mxCell id="1" parent="0"/>
                <mxCell id="48" value="" style="group;strokeColor=#B3B3B3;" parent="1" vertex="1" connectable="0">
                    <mxGeometry x="64" y="20" width="700" height="620" as="geometry"/>
                </mxCell>
                <mxCell id="6" value="" style="group;strokeColor=none;" parent="48" vertex="1" connectable="0">
                    <mxGeometry x="210" width="285" height="190" as="geometry"/>
                </mxCell>
                <mxCell id="2" value="UCloud" style="ellipse;shape=cloud;whiteSpace=wrap;html=1;strokeColor=#B3B3B3;" parent="6" vertex="1">
                    <mxGeometry width="285" height="190" as="geometry"/>
                </mxCell>
                <mxCell id="5" value="Frps内网穿透" style="rounded=1;whiteSpace=wrap;html=1;strokeColor=#B3B3B3;" parent="6" vertex="1">
                    <mxGeometry x="82.5" y="110" width="120" height="30" as="geometry"/>
                </mxCell>
                <mxCell id="8" style="edgeStyle=none;html=1;entryX=0;entryY=0.5;entryDx=0;entryDy=0;strokeColor=#B3B3B3;" parent="48" source="7" target="5" edge="1">
                    <mxGeometry relative="1" as="geometry"/>
                </mxCell>
                <mxCell id="7" value="用户" style="shape=umlActor;verticalLabelPosition=bottom;verticalAlign=top;html=1;outlineConnect=0;strokeColor=#B3B3B3;" parent="48" vertex="1">
                    <mxGeometry x="30" y="80" width="40" height="90" as="geometry"/>
                </mxCell>
                <mxCell id="13" value="本地服务器(E5)" style="swimlane;whiteSpace=wrap;html=1;strokeColor=#B3B3B3;" parent="48" vertex="1">
                    <mxGeometry y="210" width="700" height="410" as="geometry">
                        <mxRectangle x="40" y="390" width="120" height="30" as="alternateBounds"/>
                    </mxGeometry>
                </mxCell>
                <mxCell id="14" value="docker 部署" style="swimlane;horizontal=0;whiteSpace=wrap;html=1;strokeColor=#B3B3B3;" parent="13" vertex="1">
                    <mxGeometry x="14" y="40" width="666" height="270" as="geometry">
                        <mxRectangle x="20" y="50" width="40" height="70" as="alternateBounds"/>
                    </mxGeometry>
                </mxCell>
                <mxCell id="36" style="edgeStyle=none;html=1;exitX=0;exitY=0.5;exitDx=0;exitDy=0;entryX=1;entryY=0.5;entryDx=0;entryDy=0;strokeColor=#B3B3B3;" parent="14" source="15" target="20" edge="1">
                    <mxGeometry relative="1" as="geometry"/>
                </mxCell>
                <mxCell id="15" value="portainer部署" style="swimlane;whiteSpace=wrap;html=1;strokeColor=#B3B3B3;" parent="14" vertex="1">
                    <mxGeometry x="406" y="50" width="234" height="200" as="geometry"/>
                </mxCell>
                <mxCell id="28" value="Doc文档" style="rounded=1;whiteSpace=wrap;html=1;strokeColor=#B3B3B3;" parent="15" vertex="1">
                    <mxGeometry x="16" y="40" width="74" height="30" as="geometry"/>
                </mxCell>
                <mxCell id="29" value="微信Bot" style="rounded=1;whiteSpace=wrap;html=1;strokeColor=#B3B3B3;" parent="15" vertex="1">
                    <mxGeometry x="16" y="80" width="74" height="30" as="geometry"/>
                </mxCell>
                <mxCell id="30" value="notebook" style="rounded=1;whiteSpace=wrap;html=1;strokeColor=#B3B3B3;" parent="15" vertex="1">
                    <mxGeometry x="16" y="120" width="74" height="30" as="geometry"/>
                </mxCell>
                <mxCell id="31" value="fastgpt" style="rounded=1;whiteSpace=wrap;html=1;strokeColor=#B3B3B3;" parent="15" vertex="1">
                    <mxGeometry x="16" y="160" width="74" height="30" as="geometry"/>
                </mxCell>
                <mxCell id="25" value="Drone CI" style="rounded=1;whiteSpace=wrap;html=1;strokeColor=#B3B3B3;" parent="15" vertex="1">
                    <mxGeometry x="102" y="40" width="74" height="30" as="geometry"/>
                </mxCell>
                <mxCell id="33" value="Dify" style="rounded=1;whiteSpace=wrap;html=1;strokeColor=#B3B3B3;" parent="15" vertex="1">
                    <mxGeometry x="104" y="80" width="74" height="30" as="geometry"/>
                </mxCell>
                <mxCell id="19" style="edgeStyle=none;html=1;exitX=0.5;exitY=1;exitDx=0;exitDy=0;entryX=0.5;entryY=0;entryDx=0;entryDy=0;strokeColor=#B3B3B3;" parent="14" source="16" target="18" edge="1">
                    <mxGeometry relative="1" as="geometry"/>
                </mxCell>
                <mxCell id="16" value="frpc内网穿透" style="rounded=1;whiteSpace=wrap;html=1;strokeColor=#B3B3B3;" parent="14" vertex="1">
                    <mxGeometry x="298.5" y="10" width="80" height="30" as="geometry"/>
                </mxCell>
                <mxCell id="21" style="edgeStyle=none;html=1;exitX=1;exitY=0.25;exitDx=0;exitDy=0;entryX=0;entryY=0.5;entryDx=0;entryDy=0;strokeColor=#B3B3B3;" parent="14" source="18" target="20" edge="1">
                    <mxGeometry relative="1" as="geometry"/>
                </mxCell>
                <mxCell id="23" style="edgeStyle=none;html=1;entryX=0;entryY=0.75;entryDx=0;entryDy=0;exitX=1;exitY=0.75;exitDx=0;exitDy=0;strokeColor=#B3B3B3;" parent="14" source="18" target="15" edge="1">
                    <mxGeometry relative="1" as="geometry">
                        <Array as="points"/>
                    </mxGeometry>
                </mxCell>
                <mxCell id="26" style="edgeStyle=none;html=1;exitX=1;exitY=0.25;exitDx=0;exitDy=0;entryX=0;entryY=0.5;entryDx=0;entryDy=0;strokeColor=#B3B3B3;" parent="14" source="18" target="24" edge="1">
                    <mxGeometry relative="1" as="geometry"/>
                </mxCell>
                <mxCell id="18" value="ApiSix 网关" style="rounded=1;whiteSpace=wrap;html=1;strokeColor=#B3B3B3;" parent="14" vertex="1">
                    <mxGeometry x="34" y="80" width="84" height="160" as="geometry"/>
                </mxCell>
                <mxCell id="20" value="Harbor镜像" style="rounded=1;whiteSpace=wrap;html=1;strokeColor=#B3B3B3;" parent="14" vertex="1">
                    <mxGeometry x="236" y="140" width="80" height="40" as="geometry"/>
                </mxCell>
                <mxCell id="24" value="Gitea" style="rounded=1;whiteSpace=wrap;html=1;strokeColor=#B3B3B3;" parent="14" vertex="1">
                    <mxGeometry x="246" y="70" width="60" height="30" as="geometry"/>
                </mxCell>
                <mxCell id="35" style="edgeStyle=none;html=1;exitX=0;exitY=0.5;exitDx=0;exitDy=0;entryX=1;entryY=0.5;entryDx=0;entryDy=0;strokeColor=#B3B3B3;" parent="14" source="25" target="24" edge="1">
                    <mxGeometry relative="1" as="geometry"/>
                </mxCell>
                <mxCell id="37" value="ChatGlm" style="rounded=1;whiteSpace=wrap;html=1;strokeColor=#B3B3B3;" parent="13" vertex="1">
                    <mxGeometry x="40" y="350" width="70" height="40" as="geometry"/>
                </mxCell>
                <mxCell id="38" value="Stable Diffusion" style="rounded=1;whiteSpace=wrap;html=1;strokeColor=#B3B3B3;" parent="13" vertex="1">
                    <mxGeometry x="130" y="350" width="120" height="40" as="geometry"/>
                </mxCell>
                <mxCell id="39" value="Gpt-Sovits" style="rounded=1;whiteSpace=wrap;html=1;strokeColor=#B3B3B3;" parent="13" vertex="1">
                    <mxGeometry x="270" y="350" width="90" height="40" as="geometry"/>
                </mxCell>
                <mxCell id="40" style="edgeStyle=none;html=1;exitX=0.5;exitY=1;exitDx=0;exitDy=0;entryX=0.5;entryY=0;entryDx=0;entryDy=0;strokeColor=#B3B3B3;" parent="13" source="18" target="37" edge="1">
                    <mxGeometry relative="1" as="geometry"/>
                </mxCell>
                <mxCell id="41" style="edgeStyle=none;html=1;exitX=0.5;exitY=1;exitDx=0;exitDy=0;entryX=0.5;entryY=0;entryDx=0;entryDy=0;strokeColor=#B3B3B3;" parent="13" source="18" target="38" edge="1">
                    <mxGeometry relative="1" as="geometry"/>
                </mxCell>
                <mxCell id="42" style="edgeStyle=none;html=1;exitX=0.5;exitY=1;exitDx=0;exitDy=0;entryX=0.5;entryY=0;entryDx=0;entryDy=0;strokeColor=#B3B3B3;" parent="13" source="18" target="39" edge="1">
                    <mxGeometry relative="1" as="geometry"/>
                </mxCell>
                <mxCell id="43" style="edgeStyle=none;html=1;exitX=0.5;exitY=1;exitDx=0;exitDy=0;entryX=0.5;entryY=0;entryDx=0;entryDy=0;strokeColor=#B3B3B3;" parent="13" source="31" target="37" edge="1">
                    <mxGeometry relative="1" as="geometry"/>
                </mxCell>
                <mxCell id="17" style="edgeStyle=none;html=1;exitX=0.5;exitY=1;exitDx=0;exitDy=0;entryX=0.5;entryY=0;entryDx=0;entryDy=0;startArrow=classic;startFill=1;strokeColor=#B3B3B3;" parent="48" source="5" target="16" edge="1">
                    <mxGeometry relative="1" as="geometry"/>
                </mxCell>
            </root>
        </mxGraphModel>
    </diagram>
</mxfile>